<svg width="25" height="25" viewBox="0 0 25 25" fill="none" xmlns="http://www.w3.org/2000/svg">
<path d="M12.5 1.77417C6.70156 1.77417 2 6.47573 2 12.2742C2 18.0726 6.70156 22.7742 12.5 22.7742C18.2984 22.7742 23 18.0726 23 12.2742C23 6.47573 18.2984 1.77417 12.5 1.77417ZM12.5 20.9929C7.68594 20.9929 3.78125 17.0882 3.78125 12.2742C3.78125 7.46011 7.68594 3.55542 12.5 3.55542C17.3141 3.55542 21.2188 7.46011 21.2188 12.2742C21.2188 17.0882 17.3141 20.9929 12.5 20.9929ZM12.6312 8.50776C13.8734 8.50776 14.7172 9.29995 14.8109 10.4625C14.818 10.5609 14.9 10.6359 14.9984 10.6359H16.3273C16.3883 10.6359 16.4375 10.5867 16.4375 10.5257C16.4375 8.4937 14.8344 7.07104 12.6242 7.07104C10.0484 7.07104 8.5625 8.81011 8.5625 11.6835V12.9093C8.5625 15.7617 10.0484 17.4773 12.6242 17.4773C14.8273 17.4773 16.4375 16.0992 16.4375 14.1632C16.4375 14.1023 16.3883 14.0531 16.3273 14.0531H14.9961C14.8977 14.0531 14.818 14.1281 14.8086 14.2242C14.7102 15.3046 13.8687 16.0476 12.6289 16.0476C11.0984 16.0476 10.2359 14.925 10.2359 12.9164V11.6835C10.2383 9.64448 11.1031 8.50776 12.6312 8.50776Z" fill="#767676"/>
</svg>
